<?xml version="1.0" standalone="no"?>
<!DOCTYPE svg PUBLIC "-//W3C//DTD SVG 1.1//EN" "http://www.w3.org/Graphics/SVG/1.1/DTD/svg11.dtd">
<!--Generator: Xara Designer (www.xara.com), SVG filter version: 6.7.0.0-->
<svg fill="none" fill-rule="evenodd" stroke="black" stroke-width="0.501" stroke-linejoin="bevel" stroke-miterlimit="10" font-family="Times New Roman" font-size="16" style="font-variant-ligatures:none" xmlns:xlink="http://www.w3.org/1999/xlink" xmlns="http://www.w3.org/2000/svg" version="1.1" overflow="visible" width="25.52pt" height="25.52pt" viewBox="417.365 -569.635 25.52 25.52">
 <defs>
	</defs>
 <g id="Page background" transform="scale(1 -1)"/>
 <g id="Layer 1" transform="scale(1 -1)">
  <ellipse rx="12.021" ry="12.021" transform="translate(430.125 556.875) rotate(143.558)" stroke-width="1.5" stroke="#007272" fill="#ffffff" stroke-linejoin="round" stroke-linecap="round"/>
  <path d="M 429.676,563.996 C 429.676,564.939 430.439,565.702 431.381,565.702 C 432.322,565.702 433.087,564.939 433.087,563.996 C 433.087,563.055 432.322,562.292 431.381,562.292 C 430.439,562.292 429.676,563.055 429.676,563.996 L 429.676,563.996 Z M 427.996,559.39 C 427.452,559.148 427.027,558.708 426.806,558.157 L 426.752,558.023 C 426.52,557.44 425.858,557.155 425.275,557.39 C 424.692,557.624 424.408,558.286 424.642,558.867 L 424.696,559.002 C 425.136,560.1 425.988,560.985 427.07,561.469 L 427.461,561.642 C 428.202,561.969 428.969,562.14 429.808,562.14 C 431.391,562.14 432.82,561.188 433.428,559.727 L 433.943,558.421 L 434.731,558.04 C 435.293,557.759 435.52,557.077 435.239,556.515 C 434.959,555.955 434.276,555.728 433.716,556.009 L 432.766,556.48 C 432.401,556.665 432.114,556.974 431.957,557.351 L 431.616,558.167 L 430.93,555.841 L 432.689,553.919 C 432.88,553.709 433.018,553.457 433.087,553.18 L 433.903,549.912 C 434.056,549.301 433.687,548.683 433.079,548.533 C 432.468,548.381 431.85,548.75 431.668,549.358 L 430.916,552.491 L 428.408,555.23 C 427.881,555.802 427.654,556.601 427.885,557.351 L 428.485,559.607 C 428.454,559.592 428.419,559.578 428.386,559.565 L 427.996,559.39 Z M 427.869,554.759 L 429.315,553.182 L 428.8,551.895 C 428.715,551.679 428.587,551.484 428.423,551.324 L 426.233,549.132 C 425.789,548.687 425.069,548.687 424.626,549.132 C 424.18,549.576 424.18,550.293 424.626,550.738 L 426.733,552.847 L 427.621,555.065 C 427.697,554.957 427.78,554.859 427.869,554.759 L 427.869,554.759 Z" fill="#007272" stroke="none" stroke-width="0.035" fill-rule="nonzero" stroke-linejoin="miter" marker-start="none" marker-end="none"/>
 </g>
</svg>
